<?xml version="1.0" encoding="UTF-8"?>
<svg version="1.1" xmlns="http://www.w3.org/2000/svg" width="500" height="500">
<path d="M0 0 C165 0 330 0 500 0 C500 165 500 330 500 500 C335 500 170 500 0 500 C0 335 0 170 0 0 Z " fill="#FEFEFE" transform="translate(0,0)"/>
<path d="M0 0 C0.93199219 -0.00257813 1.86398438 -0.00515625 2.82421875 -0.0078125 C3.80003906 -0.00007812 4.77585938 0.00765625 5.78125 0.015625 C6.75707031 0.00789062 7.73289063 0.00015625 8.73828125 -0.0078125 C9.67027344 -0.00523437 10.60226563 -0.00265625 11.5625 0 C12.41908203 0.00225586 13.27566406 0.00451172 14.15820312 0.00683594 C16.28125 0.265625 16.28125 0.265625 18.28125 2.265625 C18.52175903 4.36636353 18.52175903 4.36636353 18.50830078 6.99072266 C18.50814972 7.97158844 18.50799866 8.95245422 18.50784302 9.96304321 C18.49752045 11.02453583 18.48719788 12.08602844 18.4765625 13.1796875 C18.4737326 14.26446381 18.47090271 15.34924011 18.46798706 16.46688843 C18.45676578 19.94157813 18.43165762 23.41601282 18.40625 26.890625 C18.39622272 29.24218379 18.38709643 31.5937466 18.37890625 33.9453125 C18.35682007 39.7188487 18.3222769 45.49219357 18.28125 51.265625 C24.88125 51.265625 31.48125 51.265625 38.28125 51.265625 C38.27601318 49.79174316 38.27077637 48.31786133 38.26538086 46.79931641 C38.24732098 41.34636031 38.23581435 35.89340687 38.22631836 30.44042969 C38.22128041 28.07746944 38.21444992 25.71451232 38.20581055 23.3515625 C38.19372146 19.96092965 38.18801641 16.57033791 38.18359375 13.1796875 C38.17843246 12.11819489 38.17327118 11.05670227 38.16795349 9.96304321 C38.16787796 8.98217743 38.16780243 8.00131165 38.16772461 6.99072266 C38.165504 6.12468414 38.16328339 5.25864563 38.16099548 4.36636353 C38.28125 2.265625 38.28125 2.265625 39.28125 0.265625 C42.92706687 0.23674988 46.57285463 0.21886915 50.21875 0.203125 C51.78012695 0.19055664 51.78012695 0.19055664 53.37304688 0.17773438 C54.36240234 0.17451172 55.35175781 0.17128906 56.37109375 0.16796875 C57.74575806 0.16011353 57.74575806 0.16011353 59.14819336 0.15209961 C61.28125 0.265625 61.28125 0.265625 62.28125 1.265625 C62.37945173 2.88286885 62.40756935 4.50441133 62.40823364 6.12463379 C62.41246338 7.70218193 62.41246338 7.70218193 62.41677856 9.31159973 C62.41374222 11.05711372 62.41374222 11.05711372 62.41064453 12.83789062 C62.41327301 14.66449471 62.41327301 14.66449471 62.41595459 16.52799988 C62.41961281 19.87709616 62.41873966 23.22613102 62.4155755 26.57522392 C62.41305154 30.07281454 62.41538954 33.57040245 62.41696167 37.06799316 C62.41878326 42.94263177 62.41637734 48.81725783 62.41162109 54.69189453 C62.40617849 61.49301551 62.40794116 68.29410651 62.4134475 75.09522676 C62.41797893 80.92451628 62.41862903 86.75379674 62.41600883 92.58308744 C62.41444622 96.06905325 62.41425185 99.55500494 62.41754532 103.04096985 C62.42095835 106.92511163 62.4162338 110.80921958 62.41064453 114.69335938 C62.41266876 115.85703537 62.41469299 117.02071136 62.41677856 118.21965027 C62.41395874 119.27134903 62.41113892 120.32304779 62.40823364 121.40661621 C62.4076681 122.78597477 62.4076681 122.78597477 62.40709114 124.19319916 C62.28125 126.265625 62.28125 126.265625 61.28125 127.265625 C59.65867456 127.3647907 58.03185169 127.39642277 56.40625 127.3984375 C55.42140625 127.39972656 54.4365625 127.40101563 53.421875 127.40234375 C52.38546875 127.39847656 51.3490625 127.39460938 50.28125 127.390625 C48.72664063 127.39642578 48.72664063 127.39642578 47.140625 127.40234375 C46.15578125 127.40105469 45.1709375 127.39976562 44.15625 127.3984375 C43.24617188 127.39730957 42.33609375 127.39618164 41.3984375 127.39501953 C39.28125 127.265625 39.28125 127.265625 38.28125 126.265625 C38.18778085 124.60824057 38.16380023 122.94687856 38.16772461 121.28686523 C38.16780014 120.22584091 38.16787567 119.16481659 38.16795349 118.07164001 C38.17311478 116.917491 38.17827606 115.76334198 38.18359375 114.57421875 C38.1850087 113.39924332 38.18642365 112.22426788 38.18788147 111.01368713 C38.19350008 107.24347436 38.20605574 103.47331996 38.21875 99.703125 C38.2237626 97.15429773 38.22832592 94.60546953 38.23242188 92.05664062 C38.24347556 85.7929461 38.26075266 79.52929546 38.28125 73.265625 C31.68125 73.265625 25.08125 73.265625 18.28125 73.265625 C18.29172363 74.83038574 18.30219727 76.39514648 18.31298828 78.00732422 C18.34910408 83.79571253 18.37211975 89.58409083 18.39111328 95.37255859 C18.40119011 97.88103915 18.41485179 100.38950792 18.43212891 102.89794922 C18.45630337 106.49709988 18.46771612 110.09609567 18.4765625 113.6953125 C18.48688507 114.82242645 18.49720764 115.94954041 18.50784302 117.11080933 C18.50799408 118.15173737 18.50814514 119.19266541 18.50830078 120.26513672 C18.512742 121.18446991 18.51718323 122.1038031 18.52175903 123.05099487 C18.28125 125.265625 18.28125 125.265625 16.28125 127.265625 C14.15820312 127.52441406 14.15820312 127.52441406 11.5625 127.53125 C10.63050781 127.53382813 9.69851562 127.53640625 8.73828125 127.5390625 C7.76246094 127.53132813 6.78664062 127.52359375 5.78125 127.515625 C4.31751953 127.52722656 4.31751953 127.52722656 2.82421875 127.5390625 C1.89222656 127.53648437 0.96023437 127.53390625 0 127.53125 C-0.85658203 127.52899414 -1.71316406 127.52673828 -2.59570312 127.52441406 C-4.71875 127.265625 -4.71875 127.265625 -6.71875 125.265625 C-6.97043228 123.10417938 -6.97043228 123.10417938 -6.97271729 120.36901855 C-6.97835693 119.3342186 -6.98399658 118.29941864 -6.98980713 117.23326111 C-6.98575867 116.09345291 -6.98171021 114.95364471 -6.97753906 113.77929688 C-6.9810437 112.58252823 -6.98454834 111.38575958 -6.98815918 110.15272522 C-6.99546799 106.86553588 -6.99373435 103.57859734 -6.98740101 100.29142189 C-6.9823469 96.8556954 -6.98703081 93.41997983 -6.99017334 89.98425293 C-6.99381471 84.21392893 -6.98900943 78.44365608 -6.97949219 72.67333984 C-6.96860728 65.99658659 -6.97213274 59.31995546 -6.983145 52.64320517 C-6.99221303 46.91663106 -6.99350554 41.19009377 -6.98826766 35.4635148 C-6.98514528 32.04067386 -6.98474592 28.61789038 -6.99134064 25.1950531 C-6.99817609 21.38063792 -6.98870924 17.5663602 -6.97753906 13.75195312 C-6.98158752 12.61214493 -6.98563599 11.47233673 -6.98980713 10.29798889 C-6.98416748 9.26318893 -6.97852783 8.22838898 -6.97271729 7.16223145 C-6.97196323 6.25962837 -6.97120918 5.3570253 -6.97043228 4.42707062 C-6.45275481 -0.01873978 -3.82714772 0.01007902 0 0 Z " fill="#030303" transform="translate(146.71875,209.734375)"/>
<path d="M0 0 C0.96330734 0.25021912 1.92661469 0.50043823 2.91911316 0.75823975 C4.97337458 1.29251095 7.02668406 1.83045366 9.07910156 2.37176514 C14.41283664 3.77813065 19.75346812 5.15780411 25.09375 6.5390625 C26.65798203 6.94461868 26.65798203 6.94461868 28.2538147 7.35836792 C35.9599243 9.34967237 43.68209601 11.22078606 51.44921875 12.9609375 C63.02446189 15.55671936 74.49205185 18.51334862 85.94921875 21.5859375 C85.61921875 22.9059375 85.28921875 24.2259375 84.94921875 25.5859375 C74.55421875 28.0609375 74.55421875 28.0609375 63.94921875 30.5859375 C63.94921875 45.4359375 63.94921875 60.2859375 63.94921875 75.5859375 C61.96921875 75.5859375 59.98921875 75.5859375 57.94921875 75.5859375 C57.94921875 61.3959375 57.94921875 47.2059375 57.94921875 32.5859375 C52.66921875 33.9059375 47.38921875 35.2259375 41.94921875 36.5859375 C40.95921875 36.5859375 39.96921875 36.5859375 38.94921875 36.5859375 C38.94921875 43.1859375 38.94921875 49.7859375 38.94921875 56.5859375 C31.12142419 55.46768113 31.12142419 55.46768113 27.34765625 54.6484375 C26.52652344 54.47570312 25.70539063 54.30296875 24.859375 54.125 C23.19168766 53.7703916 21.52497901 53.41114339 19.859375 53.046875 C-1.93315235 48.50535297 -26.35350533 48.68085068 -48.05078125 53.5859375 C-49.31664062 53.87210938 -50.5825 54.15828125 -51.88671875 54.453125 C-54.07877047 54.96121646 -56.26723554 55.4854318 -58.44921875 56.03515625 C-61.05078125 56.5859375 -61.05078125 56.5859375 -65.05078125 56.5859375 C-65.05078125 51.6359375 -65.05078125 46.6859375 -65.05078125 41.5859375 C-48.94700026 35.67026285 -32.22809795 32.23413813 -15.05078125 31.5859375 C-38.56994953 31.09435967 -38.56994953 31.09435967 -61.42578125 36.09765625 C-67.99869988 37.32029736 -75.01454567 34.97109697 -81.36328125 33.30078125 C-82.21760742 33.08023575 -83.07193359 32.85969025 -83.95214844 32.63246155 C-86.6529273 31.9341181 -89.351854 31.22889919 -92.05078125 30.5234375 C-93.89311063 30.04576655 -95.73555751 29.56854854 -97.578125 29.09179688 C-102.07038564 27.92840849 -106.56099962 26.75885486 -111.05078125 25.5859375 C-111.38078125 24.2659375 -111.71078125 22.9459375 -112.05078125 21.5859375 C-104.6951307 19.69759567 -97.33820343 17.81428665 -89.98046875 15.93408203 C-87.49028021 15.29715367 -85.00036026 14.65917408 -82.51074219 14.02001953 C-68.22350489 10.35292346 -53.92629161 6.78525757 -39.53359985 3.55282593 C-32.88201175 2.051145 -26.37569939 0.34338162 -19.8828125 -1.75 C-12.88548458 -3.39075275 -6.76005037 -1.80960692 0 0 Z " fill="#040404" transform="translate(263.05078125,125.4140625)"/>
<path d="M0 0 C0.639375 0.44214844 1.27875 0.88429687 1.9375 1.33984375 C3.29875 2.17515625 3.29875 2.17515625 4.6875 3.02734375 C11.83350154 10.37184534 15.23468383 18.99163293 15.125 29.15234375 C15.1240332 30.17231445 15.1240332 30.17231445 15.12304688 31.21289062 C15.07830577 36.19903798 15.07830577 36.19903798 13.9375 37.33984375 C12.38794441 37.43883898 10.83396327 37.47063899 9.28125 37.47265625 C7.87166016 37.47458984 7.87166016 37.47458984 6.43359375 37.4765625 C5.44488281 37.47269531 4.45617187 37.46882813 3.4375 37.46484375 C2.44878906 37.46871094 1.46007812 37.47257812 0.44140625 37.4765625 C-0.49832031 37.47527344 -1.43804687 37.47398437 -2.40625 37.47265625 C-3.27443359 37.47152832 -4.14261719 37.47040039 -5.03710938 37.46923828 C-7.0625 37.33984375 -7.0625 37.33984375 -8.0625 36.33984375 C-8.26747832 33.07385588 -8.38206845 29.80968421 -8.48828125 26.5390625 C-9.16144338 22.78858776 -10.05663033 21.61046472 -13.0625 19.33984375 C-17.05707488 18.25041424 -19.13948487 17.91846728 -22.9375 19.65234375 C-25.1520931 21.16709538 -25.1520931 21.16709538 -26.0625 23.33984375 C-26.33796634 25.77063588 -26.33796634 25.77063588 -26.375 28.52734375 C-26.41238281 29.44902344 -26.44976562 30.37070313 -26.48828125 31.3203125 C-25.59429311 37.66024674 -22.26497784 41.62875613 -17.34228516 45.35742188 C-16.75495605 45.78474609 -16.16762695 46.21207031 -15.5625 46.65234375 C-14.30905141 47.60566158 -13.05646262 48.56011085 -11.8046875 49.515625 C-10.86447754 50.22452881 -10.86447754 50.22452881 -9.90527344 50.94775391 C2.22516618 60.11147499 13.8854228 70.71207807 16.9375 86.33984375 C17.6155432 95.16552087 17.21576491 102.50104917 12.9375 110.33984375 C12.586875 110.98566406 12.23625 111.63148438 11.875 112.296875 C7.36748977 119.48071943 -0.18735657 123.78321769 -8.26953125 125.86328125 C-18.72511931 127.64731166 -27.84293171 126.77843009 -37.0625 121.33984375 C-44.1823648 115.91947652 -47.98582387 108.98669348 -50.0625 100.33984375 C-50.21623076 97.71860395 -50.27859552 95.09043198 -50.25 92.46484375 C-50.24355469 91.14742188 -50.23710937 89.83 -50.23046875 88.47265625 C-50.0625 85.33984375 -50.0625 85.33984375 -49.0625 84.33984375 C-47.51294441 84.24084852 -45.95896327 84.20904851 -44.40625 84.20703125 C-42.99666016 84.20509766 -42.99666016 84.20509766 -41.55859375 84.203125 C-40.07552734 84.20892578 -40.07552734 84.20892578 -38.5625 84.21484375 C-37.07943359 84.20904297 -37.07943359 84.20904297 -35.56640625 84.203125 C-34.62667969 84.20441406 -33.68695313 84.20570313 -32.71875 84.20703125 C-31.85056641 84.20815918 -30.98238281 84.20928711 -30.08789062 84.21044922 C-28.0625 84.33984375 -28.0625 84.33984375 -27.0625 85.33984375 C-26.90418746 87.08714514 -26.78585745 88.83814434 -26.6875 90.58984375 C-26.32910597 94.90737187 -25.92830022 97.9229281 -23.0625 101.33984375 C-19.5538604 103.67893682 -18.19160567 103.75275432 -14.0625 103.33984375 C-11.28821423 102.07880476 -9.57932565 101.02894461 -7.75 98.58984375 C-6.39146309 94.14372297 -6.59258756 90.51462485 -8.3125 86.21484375 C-11.26398154 81.36598122 -14.55376665 77.73171404 -19 74.21484375 C-19.96292969 73.44011719 -20.92585938 72.66539062 -21.91796875 71.8671875 C-22.42763184 71.45839355 -22.93729492 71.04959961 -23.46240234 70.62841797 C-47.15777336 51.54630503 -47.15777336 51.54630503 -50.0625 38.33984375 C-51.15154315 26.25822437 -50.62056095 16.69760058 -42.75 7.08984375 C-32.01810943 -4.39716918 -13.98464327 -8.52779767 0 0 Z " fill="#030303" transform="translate(279.0625,212.66015625)"/>
<path d="M0 0 C7.15181421 5.50995803 12.08625436 11.56541498 14.0078125 20.546875 C14.09686247 22.04879511 14.13841729 23.55403766 14.140625 25.05859375 C14.14191406 25.89841797 14.14320313 26.73824219 14.14453125 27.60351562 C14.14066406 28.47169922 14.13679688 29.33988281 14.1328125 30.234375 C14.13667969 31.11416016 14.14054687 31.99394531 14.14453125 32.90039062 C14.14324219 33.73634766 14.14195312 34.57230469 14.140625 35.43359375 C14.13949707 36.19889404 14.13836914 36.96419434 14.13720703 37.75268555 C14.0078125 39.546875 14.0078125 39.546875 13.0078125 40.546875 C11.45825691 40.64587023 9.90427577 40.67767024 8.3515625 40.6796875 C6.94197266 40.68162109 6.94197266 40.68162109 5.50390625 40.68359375 C4.51519531 40.67972656 3.52648437 40.67585938 2.5078125 40.671875 C1.51910156 40.67574219 0.53039062 40.67960937 -0.48828125 40.68359375 C-1.42800781 40.68230469 -2.36773437 40.68101562 -3.3359375 40.6796875 C-4.20412109 40.67855957 -5.07230469 40.67743164 -5.96679688 40.67626953 C-7.9921875 40.546875 -7.9921875 40.546875 -8.9921875 39.546875 C-9.16189757 36.2092437 -9.28943017 32.87867458 -9.33398438 29.53710938 C-9.47133155 26.04593581 -9.7051463 23.93143661 -11.8203125 21.09765625 C-14.92716297 18.87927561 -17.19519609 18.546875 -20.9921875 18.546875 C-23.79408196 20.31328672 -25.50743661 21.57737322 -26.9921875 24.546875 C-27.09452828 26.79213578 -27.13063295 29.04050432 -27.13745117 31.28808594 C-27.14080978 31.98099731 -27.1441684 32.67390869 -27.14762878 33.38781738 C-27.15715096 35.68564636 -27.15908281 37.9834025 -27.16015625 40.28125 C-27.16336899 41.87827586 -27.16673307 43.47530142 -27.17024231 45.07232666 C-27.17623747 48.42485231 -27.17808192 51.77735218 -27.17749023 55.12988281 C-27.17738883 59.41825985 -27.1910172 63.70647052 -27.20826244 67.9948082 C-27.21940439 71.29600782 -27.22140873 74.59716759 -27.22088051 77.89838409 C-27.22205823 79.47876812 -27.22646834 81.05915325 -27.23421288 82.63951874 C-27.24405301 84.85582451 -27.24111857 87.07177395 -27.23510742 89.28808594 C-27.23653244 90.54780212 -27.23795746 91.80751831 -27.23942566 93.10540771 C-26.98675371 96.62251138 -26.43706751 99.33150028 -24.9921875 102.546875 C-21.38646046 103.74878401 -18.781944 103.87357815 -14.9921875 103.546875 C-12.23889729 101.75125095 -10.46591289 100.49432578 -8.9921875 97.546875 C-8.85371342 96.18479682 -8.76714417 94.8171635 -8.7109375 93.44921875 C-8.67355469 92.64806641 -8.63617188 91.84691406 -8.59765625 91.02148438 C-8.52718165 89.32617861 -8.45686989 87.63086606 -8.38671875 85.93554688 C-8.09283865 79.64752615 -8.09283865 79.64752615 -6.9921875 78.546875 C-3.68701816 78.29651526 -0.36822709 78.36165548 2.9453125 78.359375 C3.87794922 78.34712891 4.81058594 78.33488281 5.77148438 78.32226562 C6.66287109 78.32033203 7.55425781 78.31839844 8.47265625 78.31640625 C9.2937085 78.31229736 10.11476074 78.30818848 10.96069336 78.30395508 C13.0078125 78.546875 13.0078125 78.546875 15.0078125 80.546875 C16.74784595 91.85709245 15.74673972 104.03587336 9.60546875 113.76953125 C4.46995061 120.48714055 -3.11110751 123.91984834 -10.9921875 126.546875 C-23.16037348 127.45650655 -32.85155515 126.3810421 -42.4296875 118.296875 C-47.9552488 112.98181127 -51.78520734 106.96793733 -52.15281677 99.11585999 C-52.17401807 97.66983578 -52.1896314 96.22372339 -52.20092773 94.77758789 C-52.21071152 93.98687897 -52.2204953 93.19617004 -52.23057556 92.38150024 C-52.26051829 89.76086091 -52.28192037 87.14027296 -52.30078125 84.51953125 C-52.30735308 83.6215576 -52.3139249 82.72358395 -52.32069588 81.79839897 C-52.35329599 77.03838553 -52.37773665 72.2783944 -52.3972168 67.51831055 C-52.41497282 63.59479749 -52.44969959 59.67201089 -52.49975586 55.7487793 C-52.56028002 50.99898316 -52.59073752 46.24985628 -52.60038948 41.49969292 C-52.60889649 39.69811657 -52.62759571 37.89655578 -52.6571331 36.09520149 C-52.83891091 24.3711108 -52.33256569 14.42006436 -43.91966248 5.30018616 C-33.21129704 -4.78781481 -12.89978866 -8.00056579 0 0 Z " fill="#020202" transform="translate(364.9921875,212.453125)"/>
</svg>
