<?xml version="1.0" encoding="UTF-8"?>
<svg version="1.1" xmlns="http://www.w3.org/2000/svg" width="500" height="500">
<path d="M0 0 C165 0 330 0 500 0 C500 165 500 330 500 500 C335 500 170 500 0 500 C0 335 0 170 0 0 Z " fill="#FEFEFE" transform="translate(0,0)"/>
<path d="M0 0 C0.85655182 -0.00902847 1.71310364 -0.01805695 2.59561157 -0.02735901 C4.41640724 -0.04189339 6.23725552 -0.05075613 8.05810547 -0.05444336 C10.806605 -0.06621372 13.5527646 -0.11525482 16.30078125 -0.16601562 C29.21956834 -0.28597658 40.0516126 1.13171879 49.79296875 10.48828125 C56.93591527 18.47644882 58.77679185 26.96796092 58.84765625 37.4453125 C58.85668472 38.29100296 58.8657132 39.13669342 58.87501526 40.00801086 C58.88944098 41.7887523 58.89838524 43.56954581 58.90209961 45.3503418 C58.91395665 48.03463097 58.96318279 50.71658766 59.01367188 53.40039062 C59.12081937 64.85992814 58.29820311 75.21017051 51.2265625 84.80859375 C39.99926719 95.27039165 29.34574397 96.81319372 14.4765625 96.37109375 C14.48703613 97.23911621 14.49750977 98.10713867 14.50830078 99.00146484 C14.54235966 102.21808903 14.56745017 105.43462142 14.58642578 108.65136719 C14.59649127 110.04430156 14.61014484 111.43721477 14.62744141 112.83007812 C14.6516647 114.83063735 14.66197064 116.8313499 14.671875 118.83203125 C14.68234863 120.03649902 14.69282227 121.2409668 14.70361328 122.48193359 C14.4765625 125.37109375 14.4765625 125.37109375 12.4765625 127.37109375 C10.35351562 127.62988281 10.35351562 127.62988281 7.7578125 127.63671875 C6.82582031 127.63929688 5.89382812 127.641875 4.93359375 127.64453125 C3.95777344 127.63679688 2.98195312 127.6290625 1.9765625 127.62109375 C0.51283203 127.63269531 0.51283203 127.63269531 -0.98046875 127.64453125 C-1.91246094 127.64195312 -2.84445313 127.639375 -3.8046875 127.63671875 C-4.66126953 127.63446289 -5.51785156 127.63220703 -6.40039062 127.62988281 C-8.5234375 127.37109375 -8.5234375 127.37109375 -10.5234375 125.37109375 C-10.77511978 123.20964813 -10.77511978 123.20964813 -10.77740479 120.4744873 C-10.78304443 119.43968735 -10.78868408 118.40488739 -10.79449463 117.33872986 C-10.79044617 116.19892166 -10.78639771 115.05911346 -10.78222656 113.88476562 C-10.7857312 112.68799698 -10.78923584 111.49122833 -10.79284668 110.25819397 C-10.80015549 106.97100463 -10.79842185 103.68406609 -10.79208851 100.39689064 C-10.7870344 96.96116415 -10.79171831 93.52544858 -10.79486084 90.08972168 C-10.79850221 84.31939768 -10.79369693 78.54912483 -10.78417969 72.77880859 C-10.77329478 66.10205534 -10.77682024 59.42542421 -10.7878325 52.74867392 C-10.79690053 47.02209981 -10.79819304 41.29556252 -10.79295516 35.56898355 C-10.78983278 32.14614261 -10.78943342 28.72335913 -10.79602814 25.30052185 C-10.80286359 21.48610667 -10.79339674 17.67182895 -10.78222656 13.85742188 C-10.78627502 12.71761368 -10.79032349 11.57780548 -10.79449463 10.40345764 C-10.78885498 9.36865768 -10.78321533 8.33385773 -10.77740479 7.2677002 C-10.77665073 6.36509712 -10.77589668 5.46249405 -10.77511978 4.53253937 C-10.10455184 -1.22629329 -4.49507473 0.02914899 0 0 Z " fill="#050505" transform="translate(185.5234375,202.62890625)"/>
<path d="M0 0 C0.96330734 0.25021912 1.92661469 0.50043823 2.91911316 0.75823975 C4.97337458 1.29251095 7.02668406 1.83045366 9.07910156 2.37176514 C14.41283664 3.77813065 19.75346812 5.15780411 25.09375 6.5390625 C26.65798203 6.94461868 26.65798203 6.94461868 28.2538147 7.35836792 C35.9599243 9.34967237 43.68209601 11.22078606 51.44921875 12.9609375 C63.02446189 15.55671936 74.49205185 18.51334862 85.94921875 21.5859375 C85.61921875 22.9059375 85.28921875 24.2259375 84.94921875 25.5859375 C74.55421875 28.0609375 74.55421875 28.0609375 63.94921875 30.5859375 C63.94921875 45.4359375 63.94921875 60.2859375 63.94921875 75.5859375 C61.96921875 75.5859375 59.98921875 75.5859375 57.94921875 75.5859375 C58.27921875 61.0659375 58.60921875 46.5459375 58.94921875 31.5859375 C53.33921875 33.2359375 47.72921875 34.8859375 41.94921875 36.5859375 C40.95921875 36.5859375 39.96921875 36.5859375 38.94921875 36.5859375 C38.94921875 43.1859375 38.94921875 49.7859375 38.94921875 56.5859375 C31.12142419 55.46768113 31.12142419 55.46768113 27.34765625 54.6484375 C26.52652344 54.47570312 25.70539063 54.30296875 24.859375 54.125 C23.19168766 53.7703916 21.52497901 53.41114339 19.859375 53.046875 C-1.93315235 48.50535297 -26.35350533 48.68085068 -48.05078125 53.5859375 C-49.31664062 53.87210938 -50.5825 54.15828125 -51.88671875 54.453125 C-54.07877047 54.96121646 -56.26723554 55.4854318 -58.44921875 56.03515625 C-61.05078125 56.5859375 -61.05078125 56.5859375 -65.05078125 56.5859375 C-65.05078125 51.6359375 -65.05078125 46.6859375 -65.05078125 41.5859375 C-48.94700026 35.67026285 -32.22809795 32.23413813 -15.05078125 31.5859375 C-38.56994953 31.09435967 -38.56994953 31.09435967 -61.42578125 36.09765625 C-67.99869988 37.32029736 -75.01454567 34.97109697 -81.36328125 33.30078125 C-82.21760742 33.08023575 -83.07193359 32.85969025 -83.95214844 32.63246155 C-86.6529273 31.9341181 -89.351854 31.22889919 -92.05078125 30.5234375 C-93.89311063 30.04576655 -95.73555751 29.56854854 -97.578125 29.09179688 C-102.07038564 27.92840849 -106.56099962 26.75885486 -111.05078125 25.5859375 C-111.38078125 24.2659375 -111.71078125 22.9459375 -112.05078125 21.5859375 C-104.6951307 19.69759567 -97.33820343 17.81428665 -89.98046875 15.93408203 C-87.49028021 15.29715367 -85.00036026 14.65917408 -82.51074219 14.02001953 C-68.22350489 10.35292346 -53.92629161 6.78525757 -39.53359985 3.55282593 C-32.88201175 2.051145 -26.37569939 0.34338162 -19.8828125 -1.75 C-12.88548458 -3.39075275 -6.76005037 -1.80960692 0 0 Z " fill="#040404" transform="translate(263.05078125,118.4140625)"/>
<path d="M0 0 C8.05737003 8.28118587 10.59181478 16.29504645 10.4375 27.625 C10.4365332 29.00268555 10.4365332 29.00268555 10.43554688 30.40820312 C10.39055525 37.17194475 10.39055525 37.17194475 9.25 38.3125 C7.77347336 38.41130797 6.29232764 38.44329245 4.8125 38.4453125 C3.47058594 38.44724609 3.47058594 38.44724609 2.1015625 38.44921875 C1.16054688 38.44535156 0.21953125 38.44148438 -0.75 38.4375 C-2.16152344 38.44330078 -2.16152344 38.44330078 -3.6015625 38.44921875 C-4.49617188 38.44792969 -5.39078125 38.44664062 -6.3125 38.4453125 C-7.13878906 38.44418457 -7.96507812 38.44305664 -8.81640625 38.44189453 C-10.75 38.3125 -10.75 38.3125 -11.75 37.3125 C-11.99689473 33.81939674 -12.13435771 30.32707982 -12.2734375 26.828125 C-12.85468062 22.54026592 -14.06165517 19.63905665 -17.5 16.9375 C-20.93207959 15.98414456 -23.32822616 16.39595344 -26.75 17.3125 C-29.57703484 20.04595968 -30.65667884 21.69787079 -31.25120544 25.61352539 C-31.25137161 26.86641357 -31.25153778 28.11930176 -31.25170898 29.41015625 C-31.25711197 30.105112 -31.26251495 30.80006775 -31.26808167 31.51608276 C-31.28054237 33.80282788 -31.26409735 36.0883073 -31.24609375 38.375 C-31.2462488 39.97013413 -31.24773881 41.56526865 -31.25050354 43.16040039 C-31.25188633 46.49935615 -31.23935002 49.83788172 -31.21655273 53.17675781 C-31.18816813 57.45072611 -31.19090686 61.72397992 -31.20364285 65.9980011 C-31.21060706 69.29062981 -31.20280233 72.58309418 -31.19038582 75.8757019 C-31.18587851 77.45131805 -31.18552822 79.02695187 -31.18945122 80.60256958 C-31.19237082 82.80702711 -31.17582232 85.01050964 -31.15405273 87.21484375 C-31.14864975 88.46773193 -31.14324677 89.72062012 -31.13768005 91.01147461 C-30.71620399 94.60026692 -29.92611161 96.45674928 -27.75 99.3125 C-24.23746854 101.65418764 -22.88530644 101.80873677 -18.75 101.3125 C-15.41238955 99.16159549 -14.01529067 98.10837201 -12.75 94.3125 C-12.6035286 92.75983347 -12.50305926 91.20254338 -12.43359375 89.64453125 C-12.37075195 88.30551758 -12.37075195 88.30551758 -12.30664062 86.93945312 C-12.26732422 86.01068359 -12.22800781 85.08191406 -12.1875 84.125 C-12.12272461 82.71444336 -12.12272461 82.71444336 -12.05664062 81.27539062 C-11.95061335 78.95457146 -11.84854971 76.63364675 -11.75 74.3125 C-13.049375 74.333125 -14.34875 74.35375 -15.6875 74.375 C-17.04165633 74.39649454 -18.39756083 74.38398199 -19.75 74.3125 C-20.75 73.3125 -20.75 73.3125 -20.86352539 71.45483398 C-20.85828857 70.66407471 -20.85305176 69.87331543 -20.84765625 69.05859375 C-20.84443359 68.20458984 -20.84121094 67.35058594 -20.83789062 66.47070312 C-20.82532227 65.12395508 -20.82532227 65.12395508 -20.8125 63.75 C-20.80798828 62.84830078 -20.80347656 61.94660156 -20.79882812 61.01757812 C-20.78700225 58.78248686 -20.7705222 56.54752563 -20.75 54.3125 C-16.35343827 54.28784496 -11.9569128 54.26966158 -7.56030273 54.25756836 C-6.06355082 54.25252879 -4.56680384 54.24569713 -3.07006836 54.23706055 C-0.92300193 54.22497841 1.22399962 54.21926809 3.37109375 54.21484375 C5.31133423 54.20698853 5.31133423 54.20698853 7.29077148 54.19897461 C10.25 54.3125 10.25 54.3125 11.25 55.3125 C11.37626006 58.38253242 11.43873703 61.42874888 11.453125 64.5 C11.45882507 65.43166992 11.46452515 66.36333984 11.47039795 67.32324219 C11.47986926 69.30386209 11.48639034 71.2844979 11.49023438 73.26513672 C11.49987053 76.27209872 11.53084427 79.27835692 11.5625 82.28515625 C11.56903689 84.21093345 11.57428466 86.13671554 11.578125 88.0625 C11.5904718 88.95348389 11.6028186 89.84446777 11.61553955 90.76245117 C11.58255606 100.18111885 9.09190253 108.08049158 2.6015625 115.09375 C-4.59594501 122.02685927 -12.28638255 124.49029401 -22.1875 124.875 C-32.55543679 124.54869945 -41.32312994 121.07516313 -48.69755554 113.66871643 C-56.94104785 104.20514632 -56.50662537 93.32754423 -56.44921875 81.50390625 C-56.45514039 79.68749019 -56.4623924 77.87107803 -56.47090149 76.05467224 C-56.48272816 72.26304664 -56.47616405 68.47201003 -56.45678711 64.68041992 C-56.43391223 59.8508722 -56.4606927 55.0230855 -56.50184917 50.19371128 C-56.52757479 46.44695857 -56.52480731 42.70061901 -56.51395607 38.95380974 C-56.51248172 37.17462502 -56.52001468 35.39540666 -56.53720665 33.6163044 C-56.62980977 22.17914435 -56.03436941 12.32906357 -47.97489929 3.33058167 C-35.07311233 -8.91141777 -14.53988363 -8.92220132 0 0 Z " fill="#020202" transform="translate(315.75,207.6875)"/>
<path d="M0 0 C13 0 13 0 18 4 C20.46857338 8.93714677 19.31288238 16.56487226 19.35009766 22.05664062 C19.36663423 23.84518466 19.39389412 25.63366323 19.43212891 27.421875 C19.48707034 30.00555573 19.50879843 32.58768772 19.5234375 35.171875 C19.54610687 35.96583679 19.56877625 36.75979858 19.59213257 37.57781982 C19.57718634 41.53133464 19.04287704 43.90813326 17.34228516 47.55175781 C14 50 14 50 0 50 C0 33.5 0 17 0 0 Z " fill="#FEFEFE" transform="translate(200,226)"/>
</svg>
