<?xml version="1.0" encoding="UTF-8"?>
<svg version="1.1" xmlns="http://www.w3.org/2000/svg" width="500" height="500">
<path d="M0 0 C165 0 330 0 500 0 C500 165 500 330 500 500 C335 500 170 500 0 500 C0 335 0 170 0 0 Z " fill="#FEFEFE" transform="translate(0,0)"/>
<path d="M0 0 C0.96330734 0.25021912 1.92661469 0.50043823 2.91911316 0.75823975 C4.97337458 1.29251095 7.02668406 1.83045366 9.07910156 2.37176514 C14.41283664 3.77813065 19.75346812 5.15780411 25.09375 6.5390625 C26.65798203 6.94461868 26.65798203 6.94461868 28.2538147 7.35836792 C35.9599243 9.34967237 43.68209601 11.22078606 51.44921875 12.9609375 C63.02446189 15.55671936 74.49205185 18.51334862 85.94921875 21.5859375 C85.61921875 22.9059375 85.28921875 24.2259375 84.94921875 25.5859375 C74.55421875 28.0609375 74.55421875 28.0609375 63.94921875 30.5859375 C63.94921875 45.4359375 63.94921875 60.2859375 63.94921875 75.5859375 C61.96921875 75.5859375 59.98921875 75.5859375 57.94921875 75.5859375 C57.94921875 61.3959375 57.94921875 47.2059375 57.94921875 32.5859375 C52.66921875 33.9059375 47.38921875 35.2259375 41.94921875 36.5859375 C40.95921875 36.5859375 39.96921875 36.5859375 38.94921875 36.5859375 C38.94921875 43.1859375 38.94921875 49.7859375 38.94921875 56.5859375 C31.12142419 55.46768113 31.12142419 55.46768113 27.34765625 54.6484375 C26.52652344 54.47570312 25.70539063 54.30296875 24.859375 54.125 C23.19168766 53.7703916 21.52497901 53.41114339 19.859375 53.046875 C-1.93315235 48.50535297 -26.35350533 48.68085068 -48.05078125 53.5859375 C-49.31664062 53.87210938 -50.5825 54.15828125 -51.88671875 54.453125 C-54.07877047 54.96121646 -56.26723554 55.4854318 -58.44921875 56.03515625 C-61.05078125 56.5859375 -61.05078125 56.5859375 -65.05078125 56.5859375 C-65.05078125 51.6359375 -65.05078125 46.6859375 -65.05078125 41.5859375 C-48.94700026 35.67026285 -32.22809795 32.23413813 -15.05078125 31.5859375 C-38.56994953 31.09435967 -38.56994953 31.09435967 -61.42578125 36.09765625 C-67.99869988 37.32029736 -75.01454567 34.97109697 -81.36328125 33.30078125 C-82.21760742 33.08023575 -83.07193359 32.85969025 -83.95214844 32.63246155 C-86.6529273 31.9341181 -89.351854 31.22889919 -92.05078125 30.5234375 C-93.89311063 30.04576655 -95.73555751 29.56854854 -97.578125 29.09179688 C-102.07038564 27.92840849 -106.56099962 26.75885486 -111.05078125 25.5859375 C-111.38078125 24.2659375 -111.71078125 22.9459375 -112.05078125 21.5859375 C-104.6951307 19.69759567 -97.33820343 17.81428665 -89.98046875 15.93408203 C-87.49028021 15.29715367 -85.00036026 14.65917408 -82.51074219 14.02001953 C-68.22350489 10.35292346 -53.92629161 6.78525757 -39.53359985 3.55282593 C-32.88201175 2.051145 -26.37569939 0.34338162 -19.8828125 -1.75 C-12.88548458 -3.39075275 -6.76005037 -1.80960692 0 0 Z " fill="#040404" transform="translate(263.05078125,109.4140625)"/>
<path d="M0 0 C8.25332147 5.00483901 13.59713425 11.86044259 16.07421875 21.2578125 C16.29810884 24.22391959 16.26419394 27.16062864 16.19921875 30.1328125 C16.15796875 32.8140625 16.11671875 35.4953125 16.07421875 38.2578125 C8.81421875 38.2578125 1.55421875 38.2578125 -5.92578125 38.2578125 C-6.08854167 35.29557292 -6.25130208 32.33333333 -6.4140625 29.37109375 C-7.07692203 25.33827661 -8.43096608 22.43231013 -11.67578125 19.8828125 C-15.10786084 18.92945706 -17.50400741 19.34126594 -20.92578125 20.2578125 C-23.56411058 22.42259554 -24.71903988 23.9821243 -25.26953125 27.37890625 C-25.47717916 32.50954011 -24.58387931 35.77552949 -21.92578125 40.2578125 C-19.56039653 42.84569758 -19.56039653 42.84569758 -16.80078125 45.1953125 C-15.82109375 46.05769531 -14.84140625 46.92007813 -13.83203125 47.80859375 C-10.65694098 50.48437547 -7.40868362 53.03408015 -4.11328125 55.55859375 C6.32259006 63.6650295 15.25140735 72.91209471 18.07421875 86.2578125 C19.14402145 97.27567739 18.37316897 106.93979815 11.44921875 116.0078125 C3.46708528 124.51270534 -6.09055854 127.2104154 -17.36328125 127.6328125 C-27.07122191 127.4293865 -33.91594786 124.19055769 -40.9453125 117.546875 C-47.14566958 110.38038733 -49.10355012 102.81365935 -49.05078125 93.5703125 C-49.05464844 92.88130859 -49.05851563 92.19230469 -49.0625 91.48242188 C-49.0524746 86.38450585 -49.0524746 86.38450585 -47.92578125 85.2578125 C-46.37622566 85.15881727 -44.82224452 85.12701726 -43.26953125 85.125 C-41.85994141 85.12306641 -41.85994141 85.12306641 -40.421875 85.12109375 C-38.93880859 85.12689453 -38.93880859 85.12689453 -37.42578125 85.1328125 C-35.94271484 85.12701172 -35.94271484 85.12701172 -34.4296875 85.12109375 C-33.48996094 85.12238281 -32.55023438 85.12367188 -31.58203125 85.125 C-30.71384766 85.12612793 -29.84566406 85.12725586 -28.95117188 85.12841797 C-26.92578125 85.2578125 -26.92578125 85.2578125 -25.92578125 86.2578125 C-25.79336983 87.98504592 -25.69501273 89.71494028 -25.61328125 91.4453125 C-25.19647005 96.61511591 -24.31363025 99.35665305 -20.92578125 103.2578125 C-18.47800286 104.4817017 -17.19187584 104.2741765 -14.48828125 104.0078125 C-13.70582031 103.94078125 -12.92335937 103.87375 -12.1171875 103.8046875 C-9.50782063 103.1535086 -8.56462671 102.36275162 -6.92578125 100.2578125 C-5.44367655 95.8114984 -4.99104105 91.68050648 -6.69140625 87.2734375 C-11.71145645 78.43532096 -20.66225314 72.42603499 -28.4765625 66.21875 C-38.43942454 58.24210447 -46.74252389 50.35735668 -48.92578125 37.2578125 C-50.0170195 26.24843105 -48.87147681 16.97142638 -42.19921875 7.9140625 C-31.68537489 -3.68145253 -14.15482334 -6.87314003 0 0 Z " fill="#030303" transform="translate(226.92578125,195.7421875)"/>
<path d="M0 0 C6.41307448 5.01130957 12.4228525 11.53091638 14.14453125 19.67578125 C14.57555454 25.69101137 14.32323652 31.64447849 14.14453125 37.67578125 C6.88453125 37.67578125 -0.37546875 37.67578125 -7.85546875 37.67578125 C-8.54296875 30.42578125 -8.54296875 30.42578125 -8.72143555 28.16308594 C-9.13876955 24.52499019 -9.67340637 22.86229866 -12.25 20.22265625 C-15.48669402 18.30102082 -17.14842762 18.05794106 -20.85546875 18.67578125 C-23.55537537 20.47571899 -25.39735525 21.75955425 -26.85546875 24.67578125 C-27.50469581 29.90152691 -27.28129228 34.39736897 -24.30859375 38.9296875 C-20.04713652 44.05030949 -14.67695811 48.07579474 -9.41796875 52.11328125 C1.68687487 60.65546865 12.97779357 70.38940155 16.14453125 84.67578125 C17.02590499 95.83241082 17.07392422 105.28424227 10.14453125 114.67578125 C3.56149166 122.11217782 -4.43593812 126.23280459 -14.30859375 126.9140625 C-21.98011762 127.06402027 -28.20387727 126.88366427 -34.85546875 122.67578125 C-35.91701172 122.02222656 -35.91701172 122.02222656 -37 121.35546875 C-42.01448437 117.9504571 -45.16472731 114.08855183 -47.85546875 108.67578125 C-48.22671875 107.97195313 -48.59796875 107.268125 -48.98046875 106.54296875 C-50.26991549 102.31772809 -50.0655576 98.25190237 -49.98046875 93.86328125 C-49.97144531 92.97962891 -49.96242188 92.09597656 -49.953125 91.18554688 C-49.92966512 89.01550766 -49.8937974 86.84560878 -49.85546875 84.67578125 C-46.37631934 84.64690311 -42.89720044 84.62902438 -39.41796875 84.61328125 C-37.92813477 84.60071289 -37.92813477 84.60071289 -36.40820312 84.58789062 C-35.46396484 84.58466797 -34.51972656 84.58144531 -33.546875 84.578125 C-32.67232666 84.57288818 -31.79777832 84.56765137 -30.89672852 84.56225586 C-28.85546875 84.67578125 -28.85546875 84.67578125 -27.85546875 85.67578125 C-27.72305733 87.40301467 -27.62470023 89.13290903 -27.54296875 90.86328125 C-27.12615755 96.03308466 -26.24331775 98.7746218 -22.85546875 102.67578125 C-19.75497947 104.22602589 -17.27652657 103.9657014 -13.85546875 103.67578125 C-10.46607319 101.5389884 -9.12964318 100.49830455 -7.85546875 96.67578125 C-7.0808981 91.70480251 -7.26177127 87.84868278 -10.23046875 83.67578125 C-17.48109167 75.09757948 -26.69429714 68.11059899 -35.60546875 61.34765625 C-42.84330531 55.69309644 -48.85375306 47.26530709 -50.25488281 38.04833984 C-50.42621218 35.26549009 -50.46245023 32.52594775 -50.41796875 29.73828125 C-50.40628662 28.76552246 -50.39460449 27.79276367 -50.38256836 26.79052734 C-50.07414846 16.80847952 -47.69743896 11.11197018 -40.41796875 4.23828125 C-29.84996075 -4.45447492 -12.20707039 -7.38247016 0 0 Z " fill="#020202" transform="translate(145.85546875,196.32421875)"/>
<path d="M0 0 C7.15181421 5.50995803 12.08625436 11.56541498 14.0078125 20.546875 C14.09686247 22.04879511 14.13841729 23.55403766 14.140625 25.05859375 C14.14191406 25.89841797 14.14320313 26.73824219 14.14453125 27.60351562 C14.14066406 28.47169922 14.13679688 29.33988281 14.1328125 30.234375 C14.13667969 31.11416016 14.14054687 31.99394531 14.14453125 32.90039062 C14.14324219 33.73634766 14.14195312 34.57230469 14.140625 35.43359375 C14.13949707 36.19889404 14.13836914 36.96419434 14.13720703 37.75268555 C14.0078125 39.546875 14.0078125 39.546875 13.0078125 40.546875 C11.45825691 40.64587023 9.90427577 40.67767024 8.3515625 40.6796875 C6.94197266 40.68162109 6.94197266 40.68162109 5.50390625 40.68359375 C4.51519531 40.67972656 3.52648437 40.67585938 2.5078125 40.671875 C1.51910156 40.67574219 0.53039062 40.67960937 -0.48828125 40.68359375 C-1.42800781 40.68230469 -2.36773437 40.68101562 -3.3359375 40.6796875 C-4.20412109 40.67855957 -5.07230469 40.67743164 -5.96679688 40.67626953 C-7.9921875 40.546875 -7.9921875 40.546875 -8.9921875 39.546875 C-9.16189757 36.2092437 -9.28943017 32.87867458 -9.33398438 29.53710938 C-9.47133155 26.04593581 -9.7051463 23.93143661 -11.8203125 21.09765625 C-14.92716297 18.87927561 -17.19519609 18.546875 -20.9921875 18.546875 C-23.79408196 20.31328672 -25.50743661 21.57737322 -26.9921875 24.546875 C-27.09452828 26.79213578 -27.13063295 29.04050432 -27.13745117 31.28808594 C-27.14080978 31.98099731 -27.1441684 32.67390869 -27.14762878 33.38781738 C-27.15715096 35.68564636 -27.15908281 37.9834025 -27.16015625 40.28125 C-27.16336899 41.87827586 -27.16673307 43.47530142 -27.17024231 45.07232666 C-27.17623747 48.42485231 -27.17808192 51.77735218 -27.17749023 55.12988281 C-27.17738883 59.41825985 -27.1910172 63.70647052 -27.20826244 67.9948082 C-27.21940439 71.29600782 -27.22140873 74.59716759 -27.22088051 77.89838409 C-27.22205823 79.47876812 -27.22646834 81.05915325 -27.23421288 82.63951874 C-27.24405301 84.85582451 -27.24111857 87.07177395 -27.23510742 89.28808594 C-27.23653244 90.54780212 -27.23795746 91.80751831 -27.23942566 93.10540771 C-26.98675371 96.62251138 -26.43706751 99.33150028 -24.9921875 102.546875 C-21.38646046 103.74878401 -18.781944 103.87357815 -14.9921875 103.546875 C-12.23889729 101.75125095 -10.46591289 100.49432578 -8.9921875 97.546875 C-8.85371342 96.18479682 -8.76714417 94.8171635 -8.7109375 93.44921875 C-8.67355469 92.64806641 -8.63617188 91.84691406 -8.59765625 91.02148438 C-8.52718165 89.32617861 -8.45686989 87.63086606 -8.38671875 85.93554688 C-8.09283865 79.64752615 -8.09283865 79.64752615 -6.9921875 78.546875 C-3.68701816 78.29651526 -0.36822709 78.36165548 2.9453125 78.359375 C3.87794922 78.34712891 4.81058594 78.33488281 5.77148438 78.32226562 C6.66287109 78.32033203 7.55425781 78.31839844 8.47265625 78.31640625 C9.2937085 78.31229736 10.11476074 78.30818848 10.96069336 78.30395508 C13.0078125 78.546875 13.0078125 78.546875 15.0078125 80.546875 C16.74784595 91.85709245 15.74673972 104.03587336 9.60546875 113.76953125 C4.46995061 120.48714055 -3.11110751 123.91984834 -10.9921875 126.546875 C-23.16037348 127.45650655 -32.85155515 126.3810421 -42.4296875 118.296875 C-47.9552488 112.98181127 -51.78520734 106.96793733 -52.15281677 99.11585999 C-52.17401807 97.66983578 -52.1896314 96.22372339 -52.20092773 94.77758789 C-52.21071152 93.98687897 -52.2204953 93.19617004 -52.23057556 92.38150024 C-52.26051829 89.76086091 -52.28192037 87.14027296 -52.30078125 84.51953125 C-52.30735308 83.6215576 -52.3139249 82.72358395 -52.32069588 81.79839897 C-52.35329599 77.03838553 -52.37773665 72.2783944 -52.3972168 67.51831055 C-52.41497282 63.59479749 -52.44969959 59.67201089 -52.49975586 55.7487793 C-52.56028002 50.99898316 -52.59073752 46.24985628 -52.60038948 41.49969292 C-52.60889649 39.69811657 -52.62759571 37.89655578 -52.6571331 36.09520149 C-52.83891091 24.3711108 -52.33256569 14.42006436 -43.91966248 5.30018616 C-33.21129704 -4.78781481 -12.89978866 -8.00056579 0 0 Z " fill="#020202" transform="translate(389.9921875,196.453125)"/>
<path d="M0 0 C0.98033203 -0.01224609 1.96066406 -0.02449219 2.97070312 -0.03710938 C3.90720703 -0.03904297 4.84371094 -0.04097656 5.80859375 -0.04296875 C6.67154053 -0.04707764 7.5344873 -0.05118652 8.42358398 -0.05541992 C10.5625 0.1875 10.5625 0.1875 12.5625 2.1875 C12.80859566 4.04218483 12.80859566 4.04218483 12.80300903 6.33828735 C12.80575836 7.20769455 12.80850769 8.07710175 12.81134033 8.97285461 C12.80414978 9.92879013 12.79695923 10.88472565 12.78955078 11.86962891 C12.78984283 12.87453873 12.79013489 13.87944855 12.79043579 14.91481018 C12.78903856 18.24798107 12.77345882 21.58093049 12.7578125 24.9140625 C12.75408377 27.22048826 12.75123614 29.5269156 12.74923706 31.83334351 C12.74158959 37.91284536 12.72193154 43.99225211 12.6998291 50.07171631 C12.67939463 56.27175612 12.67024048 62.47181125 12.66015625 68.671875 C12.6386867 80.84379185 12.60453735 93.01563803 12.5625 105.1875 C14.00870728 105.17964478 14.00870728 105.17964478 15.48413086 105.17163086 C19.04922564 105.15357882 22.61431636 105.14206726 26.17944336 105.13256836 C27.72469766 105.1275286 29.26994716 105.1206968 30.81518555 105.11206055 C33.03175029 105.09997924 35.24825218 105.09426827 37.46484375 105.08984375 C38.1596434 105.08468246 38.85444305 105.07952118 39.57029724 105.07420349 C41.2347933 105.07400723 42.89915499 105.12560871 44.5625 105.1875 C46.15187556 106.77687556 45.69231143 108.42649846 45.6953125 110.625 C45.69724609 111.96691406 45.69724609 111.96691406 45.69921875 113.3359375 C45.69535156 114.27695312 45.69148438 115.21796875 45.6875 116.1875 C45.69330078 117.59902344 45.69330078 117.59902344 45.69921875 119.0390625 C45.69792969 119.93367188 45.69664062 120.82828125 45.6953125 121.75 C45.69418457 122.57628906 45.69305664 123.40257812 45.69189453 124.25390625 C45.5625 126.1875 45.5625 126.1875 44.5625 127.1875 C42.84931054 127.28631593 41.13205197 127.31548969 39.41601562 127.31689453 C38.31817749 127.32004669 37.22033936 127.32319885 36.0892334 127.32644653 C34.89447388 127.3244223 33.69971436 127.32239807 32.46875 127.3203125 C31.25175415 127.32126923 30.0347583 127.32222595 28.78088379 127.32321167 C26.20174101 127.32389372 23.62259653 127.32203772 21.04345703 127.31787109 C17.07971364 127.31252322 13.11608358 127.31781529 9.15234375 127.32421875 C6.65364558 127.32355797 4.15494748 127.32227682 1.65625 127.3203125 C-0.13588928 127.32334885 -0.13588928 127.32334885 -1.9642334 127.32644653 C-3.06207153 127.32329437 -4.15990967 127.32014221 -5.29101562 127.31689453 C-6.74876404 127.31570114 -6.74876404 127.31570114 -8.23596191 127.31448364 C-10.4375 127.1875 -10.4375 127.1875 -11.4375 126.1875 C-11.53570173 124.57025615 -11.56381935 122.94871367 -11.56448364 121.32849121 C-11.56730347 120.27679245 -11.57012329 119.22509369 -11.57302856 118.14152527 C-11.57100433 116.97784927 -11.5689801 115.81417328 -11.56689453 114.61523438 C-11.56864685 113.39749832 -11.57039917 112.17976227 -11.57220459 110.92512512 C-11.57586281 107.57602884 -11.57498966 104.22699398 -11.5718255 100.87790108 C-11.56930154 97.38031046 -11.57163954 93.88272255 -11.57321167 90.38513184 C-11.57503326 84.51049323 -11.57262734 78.63586717 -11.56787109 72.76123047 C-11.56242849 65.96010949 -11.56419116 59.15901849 -11.5696975 52.35789824 C-11.57422893 46.52860872 -11.57487903 40.69932826 -11.57225883 34.87003756 C-11.57069622 31.38407175 -11.57050185 27.89812006 -11.57379532 24.41215515 C-11.57720835 20.52801337 -11.5724838 16.64390542 -11.56689453 12.75976562 C-11.56891876 11.59608963 -11.57094299 10.43241364 -11.57302856 9.23347473 C-11.57020874 8.18177597 -11.56738892 7.13007721 -11.56448364 6.04650879 C-11.56410662 5.12693642 -11.56372959 4.20736404 -11.56334114 3.25992584 C-11.24709841 -1.94814522 -3.96394656 0.0025959 0 0 Z " fill="#000000" transform="translate(275.4375,193.8125)"/>
</svg>
