<?xml version="1.0" encoding="UTF-8"?>
<svg version="1.1" xmlns="http://www.w3.org/2000/svg" width="500" height="500">
<path d="M0 0 C165 0 330 0 500 0 C500 165 500 330 500 500 C335 500 170 500 0 500 C0 335 0 170 0 0 Z " fill="#FEFEFE" transform="translate(0,0)"/>
<path d="M0 0 C0.93199219 -0.00257813 1.86398438 -0.00515625 2.82421875 -0.0078125 C3.80003906 -0.00007812 4.77585938 0.00765625 5.78125 0.015625 C6.75707031 0.00789062 7.73289063 0.00015625 8.73828125 -0.0078125 C9.67027344 -0.00523437 10.60226563 -0.00265625 11.5625 0 C12.41908203 0.00225586 13.27566406 0.00451172 14.15820312 0.00683594 C16.28125 0.265625 16.28125 0.265625 18.28125 2.265625 C18.48360733 5.34253952 18.56120958 8.33102939 18.55249023 11.40942383 C18.55771698 12.35753433 18.56294373 13.30564484 18.56832886 14.28248596 C18.57858852 16.34612683 18.58435267 18.40979371 18.58621025 20.47345924 C18.58986202 23.73899635 18.60655659 27.00422649 18.62696838 30.2696991 C18.68249126 39.55579931 18.71306263 48.84194549 18.73754883 58.12817383 C18.75341953 63.8039851 18.78363689 69.47957994 18.82231331 75.15527916 C18.83397119 77.31979767 18.83989373 79.4843549 18.83999443 81.6489048 C18.84018637 84.67738054 18.85844615 87.70525946 18.88061523 90.73364258 C18.87603806 91.62889648 18.87146088 92.52415039 18.866745 93.4465332 C18.92199864 98.19180037 19.16072441 101.42971918 22.28125 105.265625 C25.0611316 106.6555658 27.1998826 106.45050704 30.28125 106.265625 C32.90429533 105.39127656 33.94533135 104.82395898 35.37406158 102.44925117 C36.33597204 100.13390762 36.53605761 98.57062745 36.54626465 96.0776062 C36.55453781 95.25041077 36.56281097 94.42321533 36.57133484 93.57095337 C36.57035294 92.67210419 36.56937103 91.773255 36.56835938 90.84716797 C36.57860893 89.41733582 36.57860893 89.41733582 36.58906555 87.95861816 C36.60264751 85.8906477 36.61170467 83.8226437 36.61677551 81.75463486 C36.62505635 78.48556516 36.64555206 75.21677589 36.66931152 71.94778442 C36.725756 63.83154186 36.76098954 55.71523144 36.79693604 47.59887695 C36.82812212 40.73698975 36.86726092 33.87523926 36.91719055 27.01346207 C36.93732387 23.78604596 36.94559056 20.55873427 36.95349121 17.33126831 C36.96645717 15.36260593 36.97997652 13.39394709 36.99414062 11.42529297 C36.99315872 10.52239532 36.99217682 9.61949768 36.99116516 8.6892395 C37.05355883 2.49331617 37.05355883 2.49331617 39.28125 0.265625 C41.40429688 0.00683594 41.40429688 0.00683594 44 0 C44.93199219 -0.00257813 45.86398438 -0.00515625 46.82421875 -0.0078125 C47.80003906 -0.00007812 48.77585938 0.00765625 49.78125 0.015625 C51.24498047 0.00402344 51.24498047 0.00402344 52.73828125 -0.0078125 C53.67027344 -0.00523437 54.60226563 -0.00265625 55.5625 0 C56.41908203 0.00225586 57.27566406 0.00451172 58.15820312 0.00683594 C60.28125 0.265625 60.28125 0.265625 62.28125 2.265625 C62.48556736 5.35227009 62.56436773 8.3495537 62.5559082 11.43774414 C62.56101913 12.38918304 62.56613007 13.34062195 62.57139587 14.32089233 C62.58534686 17.48091855 62.58433 20.64072781 62.58203125 23.80078125 C62.58591713 25.99596742 62.59025158 28.19115284 62.59501648 30.38633728 C62.60249196 34.99741038 62.60217925 39.60840696 62.59692383 44.21948242 C62.59114854 50.11513622 62.60800679 56.01047389 62.6312685 61.90607548 C62.64604252 66.44526488 62.64687218 70.98437899 62.64375877 75.52358818 C62.64427084 77.69599467 62.64948694 79.8684055 62.65957069 82.04078865 C62.67197907 85.0899783 62.66511523 88.13856334 62.65356445 91.18774414 C62.66120819 92.07796768 62.66885193 92.96819122 62.67672729 93.88539124 C62.59432526 103.78262659 59.64176095 111.43370746 52.96875 118.828125 C44.05825337 126.90973822 36.03978945 129.96925661 23.8515625 129.6796875 C15.29122869 128.68691356 6.92405485 124.90421894 1.28125 118.265625 C-4.96926773 109.50619876 -7.02533023 102.00856243 -6.97753906 91.41479492 C-6.9810437 90.45138184 -6.98454834 89.48796875 -6.98815918 88.49536133 C-6.99692221 85.32886433 -6.99114884 82.16259279 -6.984375 78.99609375 C-6.98572266 76.79128476 -6.98766403 74.58647606 -6.99017334 72.38166809 C-6.99311677 67.77109943 -6.98884997 63.16060844 -6.97949219 58.55004883 C-6.96806463 52.63036813 -6.97468295 46.71086813 -6.98663712 40.79119396 C-6.99384823 36.24372483 -6.99157182 31.6962989 -6.98638153 27.14882851 C-6.98504469 24.96506034 -6.98669393 22.78128828 -6.99134064 20.59752464 C-6.9963972 17.5547373 -6.98870941 14.51224749 -6.97753906 11.46948242 C-6.98158752 10.56194717 -6.98563599 9.65441193 -6.98980713 8.71937561 C-6.94655624 2.3875229 -6.60446286 0.01739324 0 0 Z " fill="#050505" transform="translate(179.71875,202.734375)"/>
<path d="M0 0 C0.96330734 0.25021912 1.92661469 0.50043823 2.91911316 0.75823975 C4.97337458 1.29251095 7.02668406 1.83045366 9.07910156 2.37176514 C14.41283664 3.77813065 19.75346812 5.15780411 25.09375 6.5390625 C26.65798203 6.94461868 26.65798203 6.94461868 28.2538147 7.35836792 C35.9599243 9.34967237 43.68209601 11.22078606 51.44921875 12.9609375 C63.02446189 15.55671936 74.49205185 18.51334862 85.94921875 21.5859375 C85.61921875 22.9059375 85.28921875 24.2259375 84.94921875 25.5859375 C74.55421875 28.0609375 74.55421875 28.0609375 63.94921875 30.5859375 C63.94921875 45.4359375 63.94921875 60.2859375 63.94921875 75.5859375 C61.96921875 75.5859375 59.98921875 75.5859375 57.94921875 75.5859375 C58.27921875 61.0659375 58.60921875 46.5459375 58.94921875 31.5859375 C53.33921875 33.2359375 47.72921875 34.8859375 41.94921875 36.5859375 C40.95921875 36.5859375 39.96921875 36.5859375 38.94921875 36.5859375 C38.94921875 43.1859375 38.94921875 49.7859375 38.94921875 56.5859375 C31.12142419 55.46768113 31.12142419 55.46768113 27.34765625 54.6484375 C26.52652344 54.47570312 25.70539063 54.30296875 24.859375 54.125 C23.19168766 53.7703916 21.52497901 53.41114339 19.859375 53.046875 C-1.93315235 48.50535297 -26.35350533 48.68085068 -48.05078125 53.5859375 C-49.31664062 53.87210938 -50.5825 54.15828125 -51.88671875 54.453125 C-54.07877047 54.96121646 -56.26723554 55.4854318 -58.44921875 56.03515625 C-61.05078125 56.5859375 -61.05078125 56.5859375 -65.05078125 56.5859375 C-65.05078125 51.6359375 -65.05078125 46.6859375 -65.05078125 41.5859375 C-48.94700026 35.67026285 -32.22809795 32.23413813 -15.05078125 31.5859375 C-38.56994953 31.09435967 -38.56994953 31.09435967 -61.42578125 36.09765625 C-67.99869988 37.32029736 -75.01454567 34.97109697 -81.36328125 33.30078125 C-82.21760742 33.08023575 -83.07193359 32.85969025 -83.95214844 32.63246155 C-86.6529273 31.9341181 -89.351854 31.22889919 -92.05078125 30.5234375 C-93.89311063 30.04576655 -95.73555751 29.56854854 -97.578125 29.09179688 C-102.07038564 27.92840849 -106.56099962 26.75885486 -111.05078125 25.5859375 C-111.38078125 24.2659375 -111.71078125 22.9459375 -112.05078125 21.5859375 C-104.6951307 19.69759567 -97.33820343 17.81428665 -89.98046875 15.93408203 C-87.49028021 15.29715367 -85.00036026 14.65917408 -82.51074219 14.02001953 C-68.22350489 10.35292346 -53.92629161 6.78525757 -39.53359985 3.55282593 C-32.88201175 2.051145 -26.37569939 0.34338162 -19.8828125 -1.75 C-12.88548458 -3.39075275 -6.76005037 -1.80960692 0 0 Z " fill="#040404" transform="translate(263.05078125,118.4140625)"/>
<path d="M0 0 C7.44933104 4.75744398 12.85578452 11.38983048 15.57421875 19.80859375 C16.76254729 26.11354707 18.11075212 36.21599576 15.1875 42.0625 C11.70835059 42.09137814 8.22923169 42.10925687 4.75 42.125 C3.26016602 42.13756836 3.26016602 42.13756836 1.74023438 42.15039062 C0.32387695 42.15522461 0.32387695 42.15522461 -1.12109375 42.16015625 C-1.99564209 42.16539307 -2.87019043 42.17062988 -3.77124023 42.17602539 C-5.8125 42.0625 -5.8125 42.0625 -6.8125 41.0625 C-6.98226751 37.96895863 -7.10953117 34.88294298 -7.15429688 31.78515625 C-7.3580728 26.96087971 -8.40297051 24.46563263 -11.8125 21.0625 C-14.70111709 19.61819145 -16.60897701 19.68561494 -19.8125 20.0625 C-23.19239374 22.68987622 -24.65003573 24.17968491 -25.43395996 28.43945312 C-25.43190552 29.72787109 -25.42985107 31.01628906 -25.42773438 32.34375 C-25.43328339 33.05821289 -25.4388324 33.77267578 -25.44454956 34.50878906 C-25.45632056 36.86071735 -25.4320999 39.21070771 -25.40625 41.5625 C-25.40453811 43.20247307 -25.40460538 44.84244887 -25.40637207 46.48242188 C-25.40472029 49.91563174 -25.3860493 53.34818748 -25.35449219 56.78125 C-25.31481462 61.17630314 -25.31044774 65.57049998 -25.31795502 69.96569824 C-25.32102832 73.35099089 -25.30889144 76.73609196 -25.29182434 80.12133789 C-25.28480585 81.74160561 -25.28166841 83.36189504 -25.28251648 84.98217773 C-25.28071351 87.24893238 -25.25929085 89.51467157 -25.23242188 91.78125 C-25.22400269 93.06966797 -25.2155835 94.35808594 -25.20690918 95.68554688 C-24.78614472 99.28815534 -23.98941837 101.19296356 -21.8125 104.0625 C-19.37789024 105.27980488 -18.06859714 105.10941814 -15.375 104.875 C-14.59253906 104.81957031 -13.81007813 104.76414062 -13.00390625 104.70703125 C-10.0573584 103.84039953 -9.39834481 102.65996615 -7.8125 100.0625 C-7.31392674 97.55890263 -7.31392674 97.55890263 -7.30078125 94.859375 C-7.26533203 93.8796875 -7.22988281 92.9 -7.19335938 91.890625 C-7.17080078 90.87484375 -7.14824219 89.8590625 -7.125 88.8125 C-7.09083984 87.78125 -7.05667969 86.75 -7.02148438 85.6875 C-6.93911907 83.14594188 -6.86993166 80.60472374 -6.8125 78.0625 C-8.111875 78.083125 -9.41125 78.10375 -10.75 78.125 C-12.10415633 78.14649454 -13.46006083 78.13398199 -14.8125 78.0625 C-16.3345959 76.5404041 -15.94209521 75.18039918 -15.9453125 73.0625 C-15.94724609 71.8559375 -15.94724609 71.8559375 -15.94921875 70.625 C-15.94535156 69.779375 -15.94148438 68.93375 -15.9375 68.0625 C-15.94330078 66.7940625 -15.94330078 66.7940625 -15.94921875 65.5 C-15.94792969 64.695625 -15.94664062 63.89125 -15.9453125 63.0625 C-15.94418457 62.32 -15.94305664 61.5775 -15.94189453 60.8125 C-15.8125 59.0625 -15.8125 59.0625 -14.8125 58.0625 C-12.52098583 57.97459025 -10.22677476 57.95555962 -7.93359375 57.96484375 C-6.90360008 57.96696617 -6.90360008 57.96696617 -5.85279846 57.96913147 C-3.65182199 57.97474521 -1.45094591 57.98729993 0.75 58 C2.23893083 58.00501324 3.72786324 58.00957645 5.21679688 58.01367188 C8.87373075 58.02471907 12.53060558 58.04199287 16.1875 58.0625 C16.3409237 64.53598293 16.44524233 71.00898919 16.51708984 77.48388672 C16.54707261 79.68165608 16.58787359 81.87930773 16.64013672 84.07666016 C17.22132486 109.15891697 17.22132486 109.15891697 8.44213867 119.02368164 C2.31225093 125.04279404 -6.4608857 128.1882171 -14.9375 128.25 C-25.55161338 128.08107512 -33.46728801 125.96435771 -41.8125 119.0625 C-48.11357353 111.91616051 -51.27263865 103.57667664 -51.23242188 94.09277344 C-51.24089142 93.34034866 -51.24936096 92.58792389 -51.25808716 91.81269836 C-51.28130122 89.34891396 -51.28248285 86.88576007 -51.28125 84.421875 C-51.28836262 82.69085446 -51.29606321 80.95983625 -51.30432129 79.2288208 C-51.31773156 75.60772139 -51.31935121 71.98683986 -51.31347656 68.36572266 C-51.30759348 63.75490852 -51.33813 59.14515207 -51.37859344 54.53454208 C-51.40461302 50.96027117 -51.40733486 47.38624983 -51.40370178 43.81189728 C-51.40538073 42.11364339 -51.41490346 40.41537642 -51.43284607 38.71721649 C-51.54305934 26.99458155 -50.79152213 16.51843746 -42.75 7.1875 C-40.91015625 5.59765625 -40.91015625 5.59765625 -38.8125 4.0625 C-38.02746094 3.48371094 -37.24242187 2.90492188 -36.43359375 2.30859375 C-26.41585891 -3.83314695 -10.86977999 -4.81977841 0 0 Z " fill="#040404" transform="translate(311.8125,203.9375)"/>
</svg>
